<svg width="15" height="19" viewBox="0 0 15 19" fill="none" xmlns="http://www.w3.org/2000/svg">
<path fill-rule="evenodd" clip-rule="evenodd" d="M11.375 3.46511C10.4709 3.46902 9.7019 2.70901 9.7041 1.81301C9.70508 0.886012 10.4609 0.128932 11.3779 0.134059C12.2971 0.138942 13.041 0.899928 13.0349 1.82913C13.0291 2.71292 12.269 3.46194 11.375 3.46511ZM6.86499 11.1951V15.0161H0.883057V13.033H4.86792V12.7019C4.86792 11.3411 4.86401 9.98001 4.87402 8.62014C4.875 8.46511 4.92407 8.29006 5.00488 8.15798C5.73608 6.96902 6.20605 6.46804 6.94507 5.28396C6.98608 5.21804 5.00488 5.28396 5.00488 5.28396V7.01907H3.27002V3.04202L4.84009 3.04104C5.94604 3.04031 7.09009 3.03933 8.104 3.04202C8.18091 3.04202 8.26489 3.07693 8.33301 3.11795C9.34009 3.71902 11.9009 5.18997 11.8999 5.34597C11.896 5.93997 11.8972 6.4888 11.8984 7.05276C11.8992 7.34036 11.8999 7.63186 11.8999 7.93508V8.38308H14.1841V10.24H10.187L10.0791 7.22293L8.33911 9.83303C8.90698 10.3999 9.46899 10.948 10.012 11.5149C10.113 11.6211 10.1909 11.7981 10.1919 11.9419C10.2041 13.9971 10.1909 18.2671 10.187 18.3491H8.03394V12.5701C8.03394 12.5701 7.10107 11.43 6.86499 11.1951Z" fill="black"/>
</svg>
